PathFileType	4	(X/Y/Z)	/Users/itak/Documents/Research/Walk-IL/dataset/trc/00050_00006.trc
DataRate	CameraRate	NumFrames	NumMarkers	Units	OrigDataRate	OrigDataStartFrame	OrigNumFrames
100.000000	100.000000	4	53	mm	100.000000	384	513
Frame#	Time	RPSI			LPSI			L3			STRN			T10			C7			CLAV			RBAK			LBAK			LSHO			LUPA			LAEL			LAOL			LWTS			LWPS			LFRA			LIFD			LHPS			LHTS			RSHO			RUPA			RAEL			RAOL			RWTS			RWPS			RFRA			RIFD			RHTS			RHPS			RBHD			LFHD			RFHD			LBHD			LHIP			RHIP			RASI			LASI			LKNE			LTHI			LANK			LTIP			LTOE			LMT1			LMT5			LHEE			RKNE			RTHI			RANK			RTIP			RTOE			RMT1			RMT5			RHEE			
		X1	Y1	Z1	X2	Y2	Z2	X3	Y3	Z3	X4	Y4	Z4	X5	Y5	Z5	X6	Y6	Z6	X7	Y7	Z7	X8	Y8	Z8	X9	Y9	Z9	X10	Y10	Z10	X11	Y11	Z11	X12	Y12	Z12	X13	Y13	Z13	X14	Y14	Z14	X15	Y15	Z15	X16	Y16	Z16	X17	Y17	Z17	X18	Y18	Z18	X19	Y19	Z19	X20	Y20	Z20	X21	Y21	Z21	X22	Y22	Z22	X23	Y23	Z23	X24	Y24	Z24	X25	Y25	Z25	X26	Y26	Z26	X27	Y27	Z27	X28	Y28	Z28	X29	Y29	Z29	X30	Y30	Z30	X31	Y31	Z31	X32	Y32	Z32	X33	Y33	Z33	X34	Y34	Z34	X35	Y35	Z35	X36	Y36	Z36	X37	Y37	Z37	X38	Y38	Z38	X39	Y39	Z39	X40	Y40	Z40	X41	Y41	Z41	X42	Y42	Z42	X43	Y43	Z43	X44	Y44	Z44	X45	Y45	Z45	X46	Y46	Z46	X47	Y47	Z47	X48	Y48	Z48	X49	Y49	Z49	X50	Y50	Z50	X51	Y51	Z51	X52	Y52	Z52	X53	Y53	Z53	

385	3.84	-540.4668579101562	1038.381958007812	-135.9953155517578	-566.4517822265625	1028.557861328125	-309.9120178222656	-546.81201171875	1094.692749023438	-228.4054107666016	-280.9636840820312	1276.139526367188	-249.9022369384766	-552.6394653320312	1229.906982421875	-231.4754943847656	-477.5701293945312	1492.083984375	-239.1338348388672	-303.22412109375	1392.64892578125	-249.4154968261719	-542.7586669921875	1357.2216796875	-159.9030914306641	-507.3582458496094	1456.81005859375	-339.1742858886719	-407.9479064941406	1456.153198242188	-417.0872497558594	-433.9870300292969	1332.07177734375	-496.9365844726562	-418.3899230957031	1117.100463867188	-524.2581787109375	-478.0491027832031	1101.005249023438	-436.972900390625	-321.0588684082031	878.427001953125	-466.3693542480469	-381.6708068847656	866.92333984375	-523.669921875	-396.4401245117188	1008.008972167969	-533.906982421875	-306.4792175292969	691.9238891601562	-450.1181640625	-347.8079528808594	786.4155883789062	-521.1990356445312	-298.2335510253906	795.908203125	-470.6515197753906	-404.2537231445312	1451.638793945312	-69.33126068115234	-416.137939453125	1384.565673828125	-5.821938037872314	-459.9006042480469	1129.217651367188	48.27688980102539	-445.8280944824219	1097.694213867188	-45.78090286254883	-311.1819152832031	880.3201293945312	18.48051261901855	-378.2195434570312	863.5797119140625	72.97756958007812	-446.3446655273438	1047.465454101562	62.557373046875	-298.4427490234375	692.3058471679688	4.589965343475342	-283.1906433105469	779.0975341796875	19.87897872924805	-336.9165344238281	774.818359375	75.55986785888672	-428.445556640625	1672.193969726562	-303.2984313964844	-264.8753967285156	1688.1669921875	-163.1965942382812	-252.3809509277344	1699.242065429688	-288.1668701171875	-432.4173278808594	1652.34716796875	-166.7519378662109	-470.9743347167969	961.6089477539062	-407.9190673828125	-472.1257019042969	964.5465698242188	-63.72750854492188	-349.6419677734375	973.5299072265625	-95.29677581787109	-355.9028930664062	968.429443359375	-361.7882385253906	-351.6191711425781	504.8362731933594	-344.5769348144531	-400.5786437988281	638.5086059570312	-387.1740417480469	-444.5348510742188	45.57725524902344	-337.6356811523438	-400.6519470214844	258.5546875	-352.4993286132812	-241.0193634033203	44.34365081787109	-342.1045837402344	-284.0144653320312	41.09270477294922	-286.6049499511719	-343.6516418457031	39.63407135009766	-382.036865234375	-492.5613403320312	45.20137405395508	-257.872802734375	-416.43994140625	515.092529296875	-77.23556518554688	-398.2867126464844	787.22802734375	-59.57275390625	-680.5462036132812	94.21035003662109	-63.48955535888672	-478.5112609863281	402.5443115234375	-63.5575065612793	-481.8189086914062	41.99594497680664	-103.0047607421875	-536.9356689453125	53.77502059936523	-142.4026184082031	-563.0446166992188	59.77187728881836	-47.12236785888672	-723.5641479492188	114.4722518920898	-119.8544921875	
386	3.85	-544.8390502929688	1038.150512695312	-134.1496429443359	-570.4579467773438	1028.629516601562	-308.3513793945312	-551.0098876953125	1094.296508789062	-226.5004730224609	-284.9877624511719	1275.7646484375	-248.1036376953125	-556.5690307617188	1229.5634765625	-229.3176879882812	-481.610595703125	1491.729248046875	-237.274658203125	-307.2528076171875	1392.283569335938	-247.7644348144531	-546.640625	1356.927978515625	-157.7935638427734	-511.4945373535156	1456.363891601562	-337.2311401367188	-412.2238464355469	1455.645385742188	-415.2879638671875	-438.4067077636719	1331.5498046875	-495.0043640136719	-422.9589233398438	1116.6005859375	-522.3971557617188	-482.4983825683594	1100.516723632812	-435.0255126953125	-325.586181640625	877.9095458984375	-464.7169799804688	-386.3165588378906	866.4179077148438	-521.9076538085938	-401.0728149414062	1007.510009765625	-532.1019897460938	-311.0669860839844	691.3917846679688	-448.4792785644531	-352.4577941894531	785.90576171875	-519.49658203125	-302.78125	795.3861694335938	-469.0321350097656	-408.0658264160156	1451.453491210938	-67.59130096435547	-419.6810913085938	1384.411865234375	-3.966685056686401	-462.7008056640625	1129.0068359375	50.69626617431641	-449.0329284667969	1097.454833984375	-43.41136169433594	-313.054443359375	880.7826538085938	20.16972351074219	-379.8575744628906	863.6650390625	74.93170928955078	-448.8663330078125	1047.259765625	64.92043304443359	-299.4927673339844	692.8317260742188	6.132389068603516	-284.5966796875	779.6925048828125	21.44660949707031	-338.0760803222656	775.1174926757812	77.25679016113281	-432.703125	1671.7607421875	-301.6279296875	-268.9784240722656	1687.951171875	-161.7403717041016	-256.665283203125	1698.985717773438	-286.7256774902344	-436.4991455078125	1651.960693359375	-165.0672760009766	-474.7159423828125	961.9143676757812	-406.2721557617188	-476.8554382324219	963.91162109375	-62.01348114013672	-354.1361083984375	972.7274780273438	-93.21430969238281	-359.7750244140625	968.3898315429688	-359.6951599121094	-354.1045227050781	505.3516845703125	-343.3765869140625	-403.3896789550781	638.8543090820312	-385.9813232421875	-444.5903015136719	45.58217239379883	-337.6203002929688	-401.7774963378906	258.8921203613281	-351.9833984375	-241.061767578125	44.53490447998047	-341.9069213867188	-284.1295471191406	41.14949035644531	-286.4505310058594	-343.7112731933594	39.81257629394531	-381.8739624023438	-492.6614990234375	45.10958480834961	-257.9134521484375	-426.8410339355469	514.6268310546875	-75.86847686767578	-405.0330200195312	786.4423828125	-57.75767135620117	-684.2274780273438	89.66953277587891	-63.65761566162109	-487.8357238769531	401.7110290527344	-62.53311920166016	-483.8873596191406	42.21911239624023	-102.9044036865234	-539.349853515625	53.27363204956055	-142.2517700195312	-565.8206787109375	58.02236557006836	-46.97551727294922	-727.6422729492188	109.3541946411133	-120.0606460571289	
387	3.86	-549.2554321289062	1037.87939453125	-132.251953125	-574.5152587890625	1028.672485351562	-306.7160339355469	-555.2545166015625	1093.893188476562	-224.5389404296875	-289.0214538574219	1275.334350585938	-246.2218933105469	-560.5191650390625	1229.196166992188	-227.1376800537109	-485.6369018554688	1491.348388671875	-235.3818054199219	-311.2814636230469	1391.86181640625	-246.0327301025391	-550.54345703125	1356.614135742188	-155.6642150878906	-515.611328125	1455.88916015625	-335.2640380859375	-416.4517211914062	1455.078002929688	-413.4413146972656	-442.7724609375	1330.956787109375	-492.9952697753906	-427.4662170410156	1116.038696289062	-520.4585571289062	-486.9102783203125	1099.964233398438	-433.0121459960938	-330.0646362304688	877.335205078125	-462.9561157226562	-390.8976440429688	865.8541259765625	-520.0541381835938	-405.6473693847656	1006.949523925781	-530.2108764648438	-315.5952453613281	690.7999877929688	-446.7306823730469	-357.0272827148438	785.3387451171875	-517.6937255859375	-307.2597045898438	794.826416015625	-467.30859375	-411.9038696289062	1451.220458984375	-65.79306030273438	-423.2860107421875	1384.213623046875	-2.059978723526001	-465.5971374511719	1128.750122070312	53.15584182739258	-452.3239440917969	1097.18359375	-40.98978424072266	-315.0098266601562	881.2201538085938	21.91608619689941	-381.579833984375	863.7069702148438	76.9219970703125	-451.5007019042969	1047.005615234375	67.31733703613281	-300.5533752441406	693.3547973632812	7.721616268157959	-286.0562133789062	780.2827758789062	23.0803337097168	-339.3076477050781	775.3847045898438	78.99553680419922	-436.9363403320312	1671.286987304688	-299.9194030761719	-273.0671997070312	1687.697387695312	-160.2331695556641	-260.9230651855469	1698.686645507812	-285.2302551269531	-440.562744140625	1651.536743164062	-163.3423004150391	-478.5357971191406	962.1769409179688	-404.544921875	-481.6170043945312	963.2371826171875	-60.23399353027344	-358.6690368652344	971.9259643554688	-91.09480285644531	-363.7010803222656	968.3250732421875	-357.5460205078125	-356.5556335449219	505.8450012207031	-342.1780700683594	-406.1847534179688	639.1771240234375	-384.7672119140625	-444.6395568847656	45.58924102783203	-337.6054992675781	-402.8899230957031	259.2214965820312	-351.4764709472656	-241.1236724853516	44.73917388916016	-341.7608337402344	-284.2419738769531	41.21461486816406	-286.3281860351562	-343.7663879394531	39.96281433105469	-381.7379455566406	-492.7425842285156	45.031982421875	-257.948974609375	-436.8439025878906	514.1975708007812	-74.52822875976562	-411.6856079101562	785.65771484375	-55.88594055175781	-687.2318115234375	85.18508911132812	-63.8415641784668	-496.718505859375	400.9011840820312	-61.54325103759766	-485.2139587402344	42.41631317138672	-102.7144927978516	-541.0661010742188	52.83942794799805	-142.0160675048828	-567.90185546875	56.46633148193359	-46.8007698059082	-731.0487670898438	104.1861877441406	-120.3129425048828	
388	3.87	-553.7192993164062	1037.579223632812	-130.3033294677734	-578.630126953125	1028.685668945312	-305.0068359375	-559.5469970703125	1093.49267578125	-222.5267944335938	-293.0701904296875	1274.856811523438	-244.2607727050781	-564.5010986328125	1228.817626953125	-224.9374847412109	-489.6499938964844	1490.950927734375	-233.4583740234375	-315.3121032714844	1391.392700195312	-244.2223663330078	-554.4716796875	1356.291259765625	-153.5181427001953	-519.7124633789062	1455.39697265625	-333.2765808105469	-420.6328735351562	1454.460693359375	-411.5498962402344	-447.0867309570312	1330.301147460938	-490.9098205566406	-431.9230041503906	1115.424072265625	-518.4418334960938	-491.280517578125	1099.357666015625	-430.924072265625	-334.4966125488281	876.7139892578125	-461.0975036621094	-395.4237670898438	865.2406005859375	-518.1099243164062	-410.1734008789062	1006.33642578125	-528.2344360351562	-320.0573120117188	690.1607055664062	-444.8822326660156	-361.5260925292969	784.7227783203125	-515.79345703125	-311.6607055664062	794.2461547851562	-465.4955139160156	-415.7666320800781	1450.950561523438	-63.93896102905273	-426.9518432617188	1383.981079101562	-0.1054673120379448	-468.5979919433594	1128.456176757812	55.6418571472168	-455.6894226074219	1096.881713867188	-38.53123092651367	-317.0532531738281	881.6338500976562	23.71950721740723	-383.4064025878906	863.7101440429688	78.94486236572266	-454.2481689453125	1046.711669921875	69.7403564453125	-301.6484985351562	693.873779296875	9.366851806640625	-287.5870361328125	780.8649291992188	24.78418159484863	-340.6314697265625	775.6227416992188	80.78146362304688	-441.1460876464844	1670.78271484375	-298.17626953125	-277.1434936523438	1687.411499023438	-158.6767730712891	-265.1532592773438	1698.3515625	-283.68115234375	-444.6109924316406	1651.083618164062	-161.5811309814453	-482.4439697265625	962.3930053710938	-402.7368469238281	-486.4091186523438	962.5415649414062	-58.38674926757812	-363.2504577636719	971.1337890625	-88.94376373291016	-367.6876831054688	968.240966796875	-355.3486022949219	-358.9801025390625	506.3175048828125	-340.990966796875	-408.9750061035156	639.4774169921875	-383.5359497070312	-444.6827697753906	45.59770202636719	-337.5928649902344	-403.9970703125	259.5428161621094	-350.9833068847656	-241.2041473388672	44.95059585571289	-341.6755981445312	-284.3489685058594	41.28931427001953	-286.246337890625	-343.8149108886719	40.07844543457031	-381.6371765136719	-492.8032531738281	44.96939468383789	-257.97900390625	-446.395751953125	513.8010864257812	-73.21917724609375	-418.2228088378906	784.8800659179688	-53.96866989135742	-689.6539916992188	80.83835601806641	-64.05225372314453	-505.1214904785156	400.1080932617188	-60.59902954101562	-485.9689636230469	42.57653427124023	-102.470458984375	-542.2282104492188	52.45164108276367	-141.7350769042969	-569.4171752929688	55.09675979614258	-46.62929916381836	-733.86083984375	99.07664489746094	-120.6158676147461	
